<?xml version="1.0" encoding="UTF-8"?><svg id="Layer_2" xmlns="http://www.w3.org/2000/svg" viewBox="0 0 106.99 45"><defs><style>.cls-1{fill:#fff;stroke:#fff;stroke-miterlimit:10;stroke-width:1.31px;}</style></defs><g id="Layer_1-2"><g><path d="M32.84,43.55c0,.32-.25,.57-.57,.57h-10.4c-.32,0-.57-.25-.57-.57l.19-12.48v-7c-.06-3.47-1.58-4.98-3.91-4.98-2.71,0-5.61,2.46-6.3,7.75l.25,16.7c0,.32-.25,.57-.57,.57H.57c-.32,0-.57-.25-.57-.57L.19,24.83,.13,.57C.13,.25,.38,0,.69,0H10.59c.32,0,.57,.25,.57,.57l-.19,14.75c2.02-2.84,5.42-4.41,9.96-4.41,7.5,0,11.78,4.6,11.72,13.11l-.06,6.99,.25,12.54Z"/><path d="M74.14,27.98c0-10.4,6.55-17.21,17.08-17.21,8.89,0,14.56,4.92,15.32,12.23,.06,.38-.13,.57-.51,.57h-9.39c-.31,0-.5-.19-.56-.51-.63-3.34-2.4-4.73-4.66-4.73-3.78,0-5.67,2.77-5.67,9.52s1.89,9.58,5.61,9.64c2.58,0,4.6-1.64,4.92-5.23,.06-.38,.31-.57,.63-.57h9.58c.38,0,.57,.19,.5,.51-.69,7.44-6.99,12.79-15.82,12.79-10.46,0-17.02-6.62-17.02-17.02Z"/><path class="cls-1" d="M48.94,44.12h-11.35c-.31,0-.57-.13-.63-.5l-6.87-31.32c-.07-.44,.12-.63,.5-.63h9.96c.32,0,.5,.19,.57,.51l2.83,20.86,3.97-20.86c.06-.38,.32-.51,.63-.51h11.53c.32,0,.51,.13,.57,.51l3.78,20.42,3.02-20.42c.07-.32,.25-.51,.57-.51h9.07c.38,0,.57,.19,.51,.63l-7,31.32c-.06,.38-.31,.5-.63,.5h-11.41c-.32,0-.57-.13-.63-.5l-4.47-20.86-3.91,20.86c-.06,.38-.31,.5-.63,.5Z"/><path d="M48.94,44.12h-11.35c-.31,0-.57-.13-.63-.5l-6.87-31.32c-.07-.44,.12-.63,.5-.63h9.96c.32,0,.5,.19,.57,.51l2.83,20.86,3.97-20.86c.06-.38,.32-.51,.63-.51h11.53c.32,0,.51,.13,.57,.51l3.78,20.42,3.02-20.42c.07-.32,.25-.51,.57-.51h9.07c.38,0,.57,.19,.51,.63l-7,31.32c-.06,.38-.31,.5-.63,.5h-11.41c-.32,0-.57-.13-.63-.5l-4.47-20.86-3.91,20.86c-.06,.38-.31,.5-.63,.5Z"/></g></g></svg>