<?xml version="1.0" encoding="UTF-8"?><svg xmlns="http://www.w3.org/2000/svg" viewBox="0 0 150.49 172.02"><defs><style>.d{fill:#fff;}.e{fill:red;}.f{fill:#d80621;}</style></defs><g id="a"/><g id="b"><g id="c"><g><g><polygon class="e" points="77.39 147.16 73.09 147.16 51.69 152.91 46.24 148.82 4.56 140.97 23.08 118.43 6.34 95.62 9.83 86.25 9.38 81.99 9.38 46.7 16.84 46.7 31.44 67.28 42.13 61.69 53.47 74.39 52.92 57.96 60.11 51.96 56.69 36.79 67.44 25.52 75.24 6.51 83.05 25.52 93.8 36.79 90.37 51.96 97.57 57.96 97.01 74.39 108.36 61.69 119.05 67.28 133.64 46.7 141.11 46.7 141.11 81.99 140.66 86.25 144.14 95.62 127.4 118.43 145.92 140.97 104.25 148.82 98.79 152.91 77.39 147.16"/><path d="M75.24,13.02l5.7,13.87,10.15,10.65-3.47,15.35,7.43,6.19-.74,22.04,14.61-16.34,10.9,5.7,15.1-21.3h3.71v32.69l-.5,4.7,3.22,8.67-17.09,23.28,17.09,20.8-38.13,7.18-4.95,3.71-20.55-5.52h-4.95l-20.55,5.52-4.95-3.71-38.13-7.18,17.09-20.8-17.09-23.28,3.22-8.67-.5-4.7V49.18h3.71l15.1,21.3,10.9-5.7,14.61,16.34-.74-22.04,7.43-6.19-3.47-15.35,10.15-10.65,5.7-13.87m0-13.02l-4.58,11.14-5.34,13.01-9.51,9.97-1.83,1.92,.58,2.59,2.8,12.4-5.1,4.25-1.86,1.55,.08,2.42,.28,8.4-5.52-6.17-2.57-2.87-3.41,1.78-7.07,3.69-12.61-17.77-1.48-2.09H6.9v37.89l.03,.26,.37,3.55-2.81,7.58-.93,2.5,1.58,2.15,14.81,20.18-14.65,17.83-5.3,6.46,8.21,1.55,37,6.97,4.03,3.02,1.93,1.45,2.33-.63,19.92-5.36h3.65l19.92,5.36,2.33,.63,1.93-1.45,4.03-3.02,37-6.97,8.21-1.55-5.3-6.46-14.65-17.83,14.81-20.18,1.58-2.15-.93-2.5-2.82-7.58,.37-3.55,.03-.26V44.23h-11.22l-1.48,2.09-12.61,17.77-7.07-3.69-3.41-1.78-2.57,2.87-5.51,6.17,.28-8.4,.08-2.42-1.86-1.55-5.1-4.25,2.8-12.4,.58-2.59-1.83-1.92-9.51-9.97-5.34-13.01L75.24,0h0Z"/></g><g><rect class="e" x="69.17" y="141.08" width="12.15" height="27.33"/><path d="M77.72,144.68v20.13h-4.95v-20.13h4.95m7.2-7.2h-19.35v34.53h19.35v-34.53h0Z"/></g><g><g><polygon class="f" points="47.73 145.44 11.2 138.56 27.64 118.55 10.39 95.06 13.49 86.71 12.98 81.8 12.98 50.3 14.98 50.3 30.32 71.92 41.31 66.18 57.4 84.18 56.58 59.59 64.11 53.32 60.62 37.88 70.51 27.52 75.24 15.98 79.98 27.52 89.86 37.88 86.38 53.32 93.91 59.59 93.08 84.18 109.17 66.18 120.16 71.92 135.5 50.3 137.51 50.3 137.51 81.81 136.99 86.71 140.09 95.06 122.85 118.55 139.28 138.56 102.76 145.44 98.04 148.98 77.87 143.56 72.62 143.56 52.45 148.98 47.73 145.44"/><path class="d" d="M75.24,18.95l3.61,8.8,.16,.39,.29,.31,9.32,9.78-3.2,14.18-.3,1.34,1.06,.88,6.58,5.49-.71,20.94-.21,6.2,4.13-4.62,13.44-15.04,9.34,4.88,1.74,.91,1.14-1.6,14.43-20.35h.3v30.32l-.48,4.59-.06,.52,.18,.49,2.8,7.53-16.37,22.3-1.03,1.41,1.11,1.35,14.68,17.87-34.4,6.48-.51,.1-.42,.31-4.08,3.06-19.5-5.24-.29-.08h-5.55l-.29,.08-19.5,5.24-4.08-3.06-.42-.31-.51-.1-34.4-6.48,14.68-17.87,1.11-1.35-1.03-1.41-16.37-22.3,2.8-7.53,.18-.49-.06-.52-.48-4.59v-30.32h.3l14.43,20.35,1.14,1.6,1.74-.91,9.34-4.88,13.44,15.04,4.13,4.62-.21-6.2-.71-20.94,6.58-5.49,1.06-.88-.3-1.34-3.2-14.18,9.32-9.78,.29-.31,.16-.39,3.61-8.8m0-5.92l-5.7,13.87-10.15,10.65,3.47,15.35-7.43,6.19,.74,22.04-14.61-16.34-10.9,5.7-15.1-21.3h-3.71v32.69l.5,4.7-3.22,8.67,17.09,23.28-17.09,20.8,38.13,7.18,4.95,3.71,20.55-5.52h4.95l20.55,5.52,4.95-3.71,38.13-7.18-17.09-20.8,17.09-23.28-3.22-8.67,.5-4.7V49.18h-3.71l-15.1,21.3-10.9-5.7-14.61,16.34,.74-22.04-7.43-6.19,3.47-15.35-10.15-10.65-5.7-13.87h0Z"/></g><g><polygon class="f" points="71.64 165.94 71.64 145.02 68.28 139.99 45.1 144.08 55.34 130.76 33.11 105.63 57.05 117.75 69.02 108.65 75.24 76.65 81.47 108.65 93.44 117.75 117.37 105.63 95.15 130.76 105.39 144.08 82.21 139.99 78.84 145.02 78.84 165.94 71.64 165.94"/><path class="d" d="M75.24,82.54l5.2,26.74,12.88,9.78,19.31-9.78-18.94,21.42,9.04,11.76-21.05-3.71-3.96,5.93v20.13h-4.95v-20.13l-3.96-5.93-21.05,3.71,9.04-11.76-18.94-21.42,19.31,9.78,12.88-9.78,5.2-26.74m0-11.78l-2.21,11.36-5.04,25.9-11.07,8.41-18.06-9.15-10.49-5.31,7.79,8.81,17.71,20.03-7.91,10.29-3.53,4.59,5.7-1.01,19.6-3.46,2.77,4.14v21.7h9.45v-21.7l2.77-4.14,19.6,3.46,5.7,1.01-3.53-4.59-7.91-10.29,17.71-20.03,7.79-8.81-10.49,5.31-18.06,9.15-11.07-8.41-5.04-25.9-2.21-11.36h0Z"/></g></g></g></g></g></svg>